HIERARCHY
ROOT root
{
	OFFSET	0	13.1	24.9
	CHANNELS 6  Xposition Yposition Zposition Xrotation Yrotation Zrotation
	JOINT spine_1
	{
		OFFSET	0	9.99999	0
		CHANNELS 3  Xrotation Yrotation Zrotation
		JOINT spine_2
		{
			OFFSET	0	112	-10
			CHANNELS 3  Xrotation Yrotation Zrotation
			JOINT spine_3
			{
				OFFSET	0	206.5	19.3
				CHANNELS 3  Xrotation Yrotation Zrotation
				JOINT spine_4
				{
					OFFSET	0	110.4	14.6
					CHANNELS 3  Xrotation Yrotation Zrotation
					JOINT neck_1
					{
						OFFSET	0	71.8	-50.3
						CHANNELS 3  Xrotation Yrotation Zrotation
						JOINT neck_2
						{
							OFFSET	0	86.2	-25.8
							CHANNELS 3  Xrotation Yrotation Zrotation
							JOINT head_ee
							{
								OFFSET	0	179.8	-8.7
								CHANNELS 3  Xrotation Yrotation Zrotation
								End Site
								{
									OFFSET	1	0	0
								}
							}
						}
					}
					JOINT left_clavicle
					{
						OFFSET	-43.2	22.4	-70.8
						CHANNELS 3  Xrotation Yrotation Zrotation
						JOINT left_shoulder
						{
							OFFSET	-93.9	-5.79999	48.7
							CHANNELS 3  Xrotation Yrotation Zrotation
							JOINT left_elbow
							{
								OFFSET	-291.4	-30.8	15.2
								CHANNELS 3  Xrotation Yrotation Zrotation
								JOINT left_lowarm_twist
								{
									OFFSET	-110.7	-3.89999	13.6
									CHANNELS 3  Xrotation Yrotation Zrotation
									JOINT left_hand
									{
										OFFSET	-110.7	-3.89999	13.6
										CHANNELS 3  Xrotation Yrotation Zrotation
										JOINT left_ee
										{
											OFFSET	-80.8	-5.10001	12.1
											CHANNELS 3  Xrotation Yrotation Zrotation
											End Site
											{
												OFFSET	1	0	0
											}
										}
									}
								}
							}
						}
					}
					JOINT right_clavicle
					{
						OFFSET	43.2	22.4	-70.8
						CHANNELS 3  Xrotation Yrotation Zrotation
						JOINT right_shoulder
						{
							OFFSET	93.9	-5.79999	48.7
							CHANNELS 3  Xrotation Yrotation Zrotation
							JOINT right_elbow
							{
								OFFSET	291.4	-30.8	15.2
								CHANNELS 3  Xrotation Yrotation Zrotation
								JOINT right_lowarm_twist
								{
									OFFSET	110.7	-3.89999	13.6
									CHANNELS 3  Xrotation Yrotation Zrotation
									JOINT right_hand
									{
										OFFSET	110.7	-3.89999	13.6
										CHANNELS 3  Xrotation Yrotation Zrotation
										JOINT right_ee
										{
											OFFSET	80.8	-5.10001	12.1
											CHANNELS 3  Xrotation Yrotation Zrotation
											End Site
											{
												OFFSET	1	0	0
											}
										}
									}
								}
							}
						}
					}
				}
			}
		}
	}
	JOINT left_hip
	{
		OFFSET	-82.8	-127.5	0.300001
		CHANNELS 3  Xrotation Yrotation Zrotation
		JOINT left_knee
		{
			OFFSET	-28.2	-396.7	2.2
			CHANNELS 3  Xrotation Yrotation Zrotation
			JOINT left_ankle
			{
				OFFSET	-11.7	-411.3	35.4
				CHANNELS 3  Xrotation Yrotation Zrotation
				JOINT left_toes
				{
					OFFSET	0	-60	-88.6
					CHANNELS 3  Xrotation Yrotation Zrotation
					JOINT left_foot_ee
					{
						OFFSET	-22.5	-16.5	-42.2
						CHANNELS 3  Xrotation Yrotation Zrotation
						End Site
						{
							OFFSET	1	0	0
						}
					}
				}
			}
		}
	}
	JOINT right_hip
	{
		OFFSET	82.8	-127.5	0.300001
		CHANNELS 3  Xrotation Yrotation Zrotation
		JOINT right_knee
		{
			OFFSET	28.2	-396.7	2.2
			CHANNELS 3  Xrotation Yrotation Zrotation
			JOINT right_ankle
			{
				OFFSET	11.7	-411.3	35.4
				CHANNELS 3  Xrotation Yrotation Zrotation
				JOINT right_toes
				{
					OFFSET	0	-60	-88.6
					CHANNELS 3  Xrotation Yrotation Zrotation
					JOINT right_foot_ee
					{
						OFFSET	22.5	-16.5	-42.2
						CHANNELS 3  Xrotation Yrotation Zrotation
						End Site
						{
							OFFSET	1	0	0
						}
					}
				}
			}
		}
	}
}
MOTION
Frames: 10
Frame Time: 0.02
391.555 721.904 -1204.45 176.585298435 -42.6690702739 -176.940633771 -0.815891 -0.470314 -1.63616 -0.814476 -0.365262 -1.66276 -0.802567 0.0161658 -1.70232 -0.806522 -0.252848 -1.68352 -2.16319 -13.3341 -4.6729 -1.93167 -20.4664 -6.64591 -0.0 0.0 -0.0 12.0808 -21.2749 24.0233 -25.3186 -43.0124 55.9035 0.710769 -19.3969 0.121476 16.4991 0.283414 -2.08129 1.09729 -14.7385 1.10251 -0.0 0.0 -0.0 6.89465 -23.1042 -12.3276 -91.6384 55.8714 -23.1772 0.642413 17.6529 -0.0997552 -27.9138 1.76681 -3.06466 3.49013 -2.81348 -25.1455 0.0 0.0 0.0 -4.48912 -14.7499 -0.938578 -2.09308 0.0805044 0.31111 -24.6792 30.0031 3.98614 2.40312 -0.0 -0.0 -0.0 0.0 -0.0 -0.0423831 -36.5817 0.113747 -13.1315 -0.314229 -1.98631 32.8277 -27.1172 4.48699 28.0975 -0.0 -0.0 0.0 0.0 0.0 
391.555 721.904 -1204.45 176.624465015 -41.943693395 -176.882446146 -0.815891 -0.470314 -1.63616 -0.814476 -0.365262 -1.66276 -0.802567 0.0161658 -1.70232 -0.806522 -0.252848 -1.68352 -2.16319 -13.3341 -4.6729 -1.93167 -20.4664 -6.64591 -0.0 0.0 -0.0 12.0808 -21.2749 24.0233 -25.3186 -43.0124 55.9035 0.710769 -19.3969 0.121476 16.4991 0.283414 -2.08129 1.09729 -14.7385 1.10251 -0.0 0.0 -0.0 6.89465 -23.1042 -12.3276 -91.6384 55.8714 -23.1772 0.642413 17.6529 -0.0997552 -27.9138 1.76681 -3.06466 3.49013 -2.81348 -25.1455 0.0 0.0 0.0 -4.48912 -14.7499 -0.938578 -2.09308 0.0805044 0.31111 -24.6792 30.0031 3.98614 2.40312 -0.0 -0.0 -0.0 0.0 -0.0 -0.0423831 -36.5817 0.113747 -13.1315 -0.314229 -1.98631 32.8277 -27.1172 4.48699 28.0975 -0.0 -0.0 0.0 0.0 0.0 
411.075637737 723.224 -1205.72745972 174.939385808 -58.1113114085 176.293230629 -3.12152 -0.159072 -0.334577 -3.12147 -0.137459 -0.344021 -3.12054 -0.0421115 -0.368065 -3.12071 -0.0997117 -0.356795 7.94195 -13.499 2.72092 9.03039 -25.0333 3.17807 -0.0 0.0 -0.0 9.28753 -24.1027 17.4655 -16.833 -43.3528 57.5085 0.806097 -21.7675 0.154995 22.77 0.232706 -2.88027 3.15313 -16.5436 14.1789 -0.0 0.0 -0.0 8.35463 -24.7685 -14.2208 -86.6411 61.3097 -14.0321 0.60567 16.701 -0.088904 -40.2903 2.98209 -4.08143 -0.570916 -6.75968 0.90143 0.0 0.0 0.0 -4.82122 -12.313 2.12298 -1.24324 0.0491909 0.184448 -25.3951 31.5956 4.14852 9.43799 -0.0 -0.0 -0.0 0.0 -0.0 -1.47398 21.7933 -0.962077 -6.5456 -0.213632 -0.981296 42.5881 -26.4989 5.46381 39.8423 -0.0 -0.0 0.0 0.0 0.0 
411.111078536 723.224 -1204.94698421 175.240703051 -55.8312768486 176.652555739 -3.12152 -0.159072 -0.334577 -3.12147 -0.137459 -0.344021 -3.12054 -0.0421115 -0.368065 -3.12071 -0.0997117 -0.356795 7.94195 -13.499 2.72092 9.03039 -25.0333 3.17807 -0.0 0.0 -0.0 9.28753 -24.1027 17.4655 -16.833 -43.3528 57.5085 0.806097 -21.7675 0.154995 22.77 0.232706 -2.88027 3.15313 -16.5436 14.1789 -0.0 0.0 -0.0 8.35463 -24.7685 -14.2208 -86.6411 61.3097 -14.0321 0.60567 16.701 -0.088904 -40.2903 2.98209 -4.08143 -0.570916 -6.75968 0.90143 0.0 0.0 0.0 -4.82122 -12.313 2.12298 -1.24324 0.0491909 0.184448 -25.3951 31.5956 4.14852 9.43799 -0.0 -0.0 -0.0 0.0 -0.0 -1.47398 21.7933 -0.962077 -6.5456 -0.213632 -0.981296 42.5881 -26.4989 5.46381 39.8423 -0.0 -0.0 0.0 0.0 0.0 
417.189608879 721.327 -1202.64472533 177.267135771 -57.1575981899 178.262934961 -3.00858 -0.143838 -0.24751 -3.00856 -0.127797 -0.256161 -3.00792 -0.056455 -0.280648 -3.00802 -0.100069 -0.26821 12.8325 -13.5173 2.32506 14.0579 -23.7391 3.39293 -0.0 0.0 -0.0 9.18177 -24.1356 17.2271 -14.4481 -41.7569 55.446 0.81475 -21.979 0.158219 23.3557 0.223512 -2.95452 3.27816 -17.8392 14.3963 -0.0 0.0 -0.0 8.39446 -25.0331 -14.239 -84.7866 61.8525 -11.6714 0.5931 16.3732 -0.0853261 -43.1582 3.29313 -4.27815 -1.07378 -5.12334 4.90981 0.0 0.0 0.0 -4.569 -11.3539 2.59313 -1.34116 0.0528946 0.199018 -25.2039 31.1627 4.10426 11.2447 -0.0 -0.0 -0.0 0.0 -0.0 -1.08496 29.3839 -0.915161 -6.96798 -0.223547 -1.04536 42.9844 -25.1643 5.45092 40.1908 -0.0 -0.0 0.0 0.0 0.0 
417.171784957 721.327 -1202.4073259 177.305673573 -56.6274023881 178.308941665 -3.00858 -0.143838 -0.24751 -3.00856 -0.127797 -0.256161 -3.00792 -0.056455 -0.280648 -3.00802 -0.100069 -0.26821 12.8325 -13.5173 2.32506 14.0579 -23.7391 3.39293 -0.0 0.0 -0.0 9.18177 -24.1356 17.2271 -14.4481 -41.7569 55.446 0.81475 -21.979 0.158219 23.3557 0.223512 -2.95452 3.27816 -17.8392 14.3963 -0.0 0.0 -0.0 8.39446 -25.0331 -14.239 -84.7866 61.8525 -11.6714 0.5931 16.3732 -0.0853261 -43.1582 3.29313 -4.27815 -1.07378 -5.12334 4.90981 0.0 0.0 0.0 -4.569 -11.3539 2.59313 -1.34116 0.0528946 0.199018 -25.2039 31.1627 4.10426 11.2447 -0.0 -0.0 -0.0 0.0 -0.0 -1.08496 29.3839 -0.915161 -6.96798 -0.223547 -1.04536 42.9844 -25.1643 5.45092 40.1908 -0.0 -0.0 0.0 0.0 0.0 
417.164576166 721.327 -1202.31885064 177.319708305 -56.4297042128 178.325766613 -3.00858 -0.143838 -0.24751 -3.00856 -0.127797 -0.256161 -3.00792 -0.056455 -0.280648 -3.00802 -0.100069 -0.26821 12.8325 -13.5173 2.32506 14.0579 -23.7391 3.39293 -0.0 0.0 -0.0 9.18177 -24.1356 17.2271 -14.4481 -41.7569 55.446 0.81475 -21.979 0.158219 23.3557 0.223512 -2.95452 3.27816 -17.8392 14.3963 -0.0 0.0 -0.0 8.39446 -25.0331 -14.239 -84.7866 61.8525 -11.6714 0.5931 16.3732 -0.0853261 -43.1582 3.29313 -4.27815 -1.07378 -5.12334 4.90981 0.0 0.0 0.0 -4.569 -11.3539 2.59313 -1.34116 0.0528946 0.199018 -25.2039 31.1627 4.10426 11.2447 -0.0 -0.0 -0.0 0.0 -0.0 -1.08496 29.3839 -0.915161 -6.96798 -0.223547 -1.04536 42.9844 -25.1643 5.45092 40.1908 -0.0 -0.0 0.0 0.0 0.0 
417.175044829 721.327 -1202.44862748 177.299061838 -56.719671297 178.30102867 -3.00858 -0.143838 -0.24751 -3.00856 -0.127797 -0.256161 -3.00792 -0.056455 -0.280648 -3.00802 -0.100069 -0.26821 12.8325 -13.5173 2.32506 14.0579 -23.7391 3.39293 -0.0 0.0 -0.0 9.18177 -24.1356 17.2271 -14.4481 -41.7569 55.446 0.81475 -21.979 0.158219 23.3557 0.223512 -2.95452 3.27816 -17.8392 14.3963 -0.0 0.0 -0.0 8.39446 -25.0331 -14.239 -84.7866 61.8525 -11.6714 0.5931 16.3732 -0.0853261 -43.1582 3.29313 -4.27815 -1.07378 -5.12334 4.90981 0.0 0.0 0.0 -4.569 -11.3539 2.59313 -1.34116 0.0528946 0.199018 -25.2039 31.1627 4.10426 11.2447 -0.0 -0.0 -0.0 0.0 -0.0 -1.08496 29.3839 -0.915161 -6.96798 -0.223547 -1.04536 42.9844 -25.1643 5.45092 40.1908 -0.0 -0.0 0.0 0.0 0.0 
417.193741717 721.327 -1202.70440207 177.257241327 -57.2908183027 178.251167012 -3.00858 -0.143838 -0.24751 -3.00856 -0.127797 -0.256161 -3.00792 -0.056455 -0.280648 -3.00802 -0.100069 -0.26821 12.8325 -13.5173 2.32506 14.0579 -23.7391 3.39293 -0.0 0.0 -0.0 9.18177 -24.1356 17.2271 -14.4481 -41.7569 55.446 0.81475 -21.979 0.158219 23.3557 0.223512 -2.95452 3.27816 -17.8392 14.3963 -0.0 0.0 -0.0 8.39446 -25.0331 -14.239 -84.7866 61.8525 -11.6714 0.5931 16.3732 -0.0853261 -43.1582 3.29313 -4.27815 -1.07378 -5.12334 4.90981 0.0 0.0 0.0 -4.569 -11.3539 2.59313 -1.34116 0.0528946 0.199018 -25.2039 31.1627 4.10426 11.2447 -0.0 -0.0 -0.0 0.0 -0.0 -1.08496 29.3839 -0.915161 -6.96798 -0.223547 -1.04536 42.9844 -25.1643 5.45092 40.1908 -0.0 -0.0 0.0 0.0 0.0 
417.177564251 721.327 -1202.48114495 177.293829081 -56.7923077189 178.294771963 -3.00858 -0.143838 -0.24751 -3.00856 -0.127797 -0.256161 -3.00792 -0.056455 -0.280648 -3.00802 -0.100069 -0.26821 12.8325 -13.5173 2.32506 14.0579 -23.7391 3.39293 -0.0 0.0 -0.0 9.18177 -24.1356 17.2271 -14.4481 -41.7569 55.446 0.81475 -21.979 0.158219 23.3557 0.223512 -2.95452 3.27816 -17.8392 14.3963 -0.0 0.0 -0.0 8.39446 -25.0331 -14.239 -84.7866 61.8525 -11.6714 0.5931 16.3732 -0.0853261 -43.1582 3.29313 -4.27815 -1.07378 -5.12334 4.90981 0.0 0.0 0.0 -4.569 -11.3539 2.59313 -1.34116 0.0528946 0.199018 -25.2039 31.1627 4.10426 11.2447 -0.0 -0.0 -0.0 0.0 -0.0 -1.08496 29.3839 -0.915161 -6.96798 -0.223547 -1.04536 42.9844 -25.1643 5.45092 40.1908 -0.0 -0.0 0.0 0.0 0.0 
